<svg width="26" height="26" viewBox="0 0 26 26" fill="none" xmlns="http://www.w3.org/2000/svg">
<path d="M22.2593 9.25L16.926 3.91667M22.2593 9.25L15.5946 15.9145C14.7164 16.7928 13.6504 17.4861 12.4265 17.6972C11.1908 17.9104 9.65721 17.9813 8.92588 17.25C8.19456 16.5187 8.26549 14.9851 8.47863 13.7493C8.68971 12.5255 9.38309 11.4595 10.2613 10.5812L16.926 3.91667M22.2593 9.25C22.2593 9.25 26.2592 5.25 23.5925 2.58334C20.9258 -0.083328 16.926 3.91667 16.926 3.91667M24.3333 13C24.3333 21.6667 21.6666 24.3333 13 24.3333C4.33329 24.3333 1.66663 21.6667 1.66663 13C1.66663 4.33334 4.33329 1.66667 13 1.66667" stroke="#AAB2BC" stroke-width="2" stroke-linecap="round" stroke-linejoin="round"/>
</svg>
