<svg width="24" height="24" viewBox="0 0 24 24" fill="none" xmlns="http://www.w3.org/2000/svg">
<path opacity="0.2" d="M9.41584 14.6701C9.74259 14.6125 10.0277 14.3616 10.1263 14.0448L10.6947 12.3965H20.1871C20.6633 12.3964 21.0965 11.9632 21.0966 11.487V10.5776C21.0965 10.1014 20.6633 9.66816 20.1871 9.66812H10.6947L10.1263 8.01974C9.96642 7.53218 9.3404 7.26186 8.87585 7.47976L3.41916 10.2081C3.08521 10.3684 2.87116 10.7489 2.9076 11.1176C2.90669 11.1459 2.90669 11.1744 2.9076 11.2028C2.96189 11.4849 3.15835 11.7359 3.41916 11.8564L8.87585 14.5848C9.04155 14.6673 9.23279 14.6975 9.41584 14.6701Z" fill="#84CC16"/>
<path d="M2.9076 12.1248C2.93489 12.2665 2.99552 12.3998 3.08447 12.5134C3.17343 12.6271 3.28815 12.7179 3.41916 12.7785L8.87585 15.5068C8.99242 15.5615 9.11929 15.5908 9.24803 15.5928C9.37678 15.5948 9.50448 15.5694 9.62269 15.5184C9.7409 15.4673 9.8469 15.3917 9.93373 15.2967C10.0206 15.2016 10.0862 15.0892 10.1263 14.9668L10.6947 13.3185H20.1871C20.4283 13.3184 20.6596 13.2226 20.8302 13.0521C21.0007 12.8815 21.0965 12.6502 21.0966 12.409V11.4996C21.0965 11.2584 21.0007 11.0271 20.8302 10.8565C20.6596 10.686 20.4283 10.5901 20.1871 10.5901H10.6947L10.1263 8.94174C10.0862 8.8194 10.0206 8.70694 9.93373 8.61186C9.8469 8.51678 9.7409 8.44126 9.62269 8.39021C9.50448 8.33917 9.37678 8.31378 9.24803 8.31577C9.11929 8.31777 8.99242 8.34708 8.87585 8.40176L3.41916 11.1301C3.25087 11.2109 3.11152 11.3415 3.02 11.5042C2.92849 11.6669 2.88924 11.8538 2.9076 12.0395C2.90627 12.0679 2.90627 12.0964 2.9076 12.1248Z" fill="#84CC16"/>
<path d="M3.81707 11.9543L9.27376 14.6826L10.0411 12.409H20.1871V11.4995H10.0411L9.27376 9.22591L3.81707 11.9543Z" fill="#FEFEFE"/>
</svg>
