<svg width="24" height="24" viewBox="0 0 24 24" fill="none" xmlns="http://www.w3.org/2000/svg">
<path opacity="0.2" d="M14.5842 9.32992C14.2574 9.38749 13.9723 9.63838 13.8737 9.95516L13.3053 11.6035H3.81289C3.33672 11.6036 2.90349 12.0368 2.90344 12.513L2.90344 13.4224C2.90349 13.8986 3.33672 14.3318 3.81289 14.3319H13.3053L13.8737 15.9803C14.0336 16.4678 14.6596 16.7381 15.1241 16.5202L20.5808 13.7919C20.9148 13.6316 21.1288 13.2511 21.0924 12.8824C21.0933 12.8541 21.0933 12.8256 21.0924 12.7972C21.0381 12.5151 20.8416 12.2641 20.5808 12.1436L15.1241 9.41523C14.9584 9.33275 14.7672 9.3025 14.5842 9.32992Z" fill="#D9D9D9"/>
<path d="M21.0924 11.8752C21.0651 11.7335 21.0045 11.6003 20.9155 11.4866C20.8266 11.3729 20.7119 11.2821 20.5808 11.2215L15.1241 8.4932C15.0076 8.43852 14.8807 8.40921 14.752 8.40721C14.6232 8.40522 14.4955 8.4306 14.3773 8.48165C14.2591 8.5327 14.1531 8.60827 14.0663 8.70335C13.9794 8.79843 13.9138 8.91083 13.8737 9.03318L13.3053 10.6816H3.81289C3.5717 10.6816 3.34038 10.7774 3.16983 10.9479C2.99928 11.1185 2.90347 11.3498 2.90344 11.591L2.90344 12.5005C2.90347 12.7416 2.99928 12.973 3.16983 13.1435C3.34038 13.3141 3.5717 13.4099 3.81289 13.4099H13.3053L13.8737 15.0583C13.9138 15.1806 13.9794 15.2931 14.0663 15.3882C14.1531 15.4832 14.2591 15.5588 14.3773 15.6098C14.4955 15.6608 14.6232 15.6862 14.752 15.6842C14.8807 15.6822 15.0076 15.6529 15.1241 15.5983L20.5808 12.8699C20.7491 12.7891 20.8885 12.6585 20.98 12.4958C21.0715 12.3331 21.1108 12.1462 21.0924 11.9605C21.0937 11.9321 21.0937 11.9036 21.0924 11.8752Z" fill="#D9D9D9"/>
<path d="M20.1829 12.0458L14.7262 9.31741L13.9589 11.591H3.81287V12.5005H13.9589L14.7262 14.7741L20.1829 12.0458Z" fill="#AAB2BC"/>
</svg>
