<svg width="32" height="32" viewBox="0 0 32 32" fill="none" xmlns="http://www.w3.org/2000/svg">
<g clip-path="url(#clip0_54_46)">
<path d="M32 0H0V32H32V0Z" fill="#F97316"/>
<path fill-rule="evenodd" clip-rule="evenodd" d="M16 2.66666C13.4991 2.66666 11.3984 2.79892 9.66678 3.18375C7.92005 3.57195 6.46823 4.23466 5.35146 5.35143C4.23469 6.4682 3.57198 7.92002 3.18378 9.66675C2.79895 11.3984 2.66669 13.4991 2.66669 16C2.66669 18.5009 2.79895 20.6016 3.18378 22.3332C3.57198 24.08 4.23469 25.5317 5.35146 26.6485C6.46823 27.7653 7.92005 28.428 9.66678 28.8163C11.3984 29.2011 13.4991 29.3333 16 29.3333C18.501 29.3333 20.6016 29.2011 22.3332 28.8163C24.08 28.428 25.5318 27.7653 26.6486 26.6485C27.7654 25.5317 28.428 24.08 28.8163 22.3332C29.2011 20.6016 29.3334 18.5009 29.3334 16C29.3334 13.4991 29.2011 11.3984 28.8163 9.66675C28.428 7.92002 27.7654 6.4682 26.6486 5.35143C25.5318 4.23466 24.08 3.57195 22.3332 3.18375C20.6016 2.79892 18.501 2.66666 16 2.66666ZM16 7.99999C16.7364 7.99999 17.3334 8.59695 17.3334 9.33332V9.45986C18.1266 9.61632 18.762 9.89894 19.2476 10.1988C19.6094 10.4222 19.8811 10.6506 20.0703 10.8339C20.2302 10.9887 20.3195 11.0915 20.4047 11.2063L20.4056 11.2075C20.8434 11.7997 20.718 12.6345 20.1259 13.0722C19.5416 13.5041 18.7202 13.3869 18.278 12.8149C18.2434 12.7749 17.9636 12.452 17.3334 12.2199V14.8019C19.4606 15.2524 20.8334 16.7812 20.8334 18.6667C20.8334 20.5521 19.4606 22.0809 17.3334 22.5315V22.6667C17.3334 23.4031 16.7364 24 16 24C15.2636 24 14.6667 23.4031 14.6667 22.6667V22.5135C13.966 22.3513 13.3754 22.0835 12.9219 21.8243C12.4947 21.5803 12.0736 21.292 11.7239 20.9428C11.2032 20.4221 11.2032 19.5779 11.7239 19.0572C12.2421 18.5389 13.0808 18.5365 13.602 19.0497C13.6254 19.0719 14.058 19.46 14.6667 19.7187V17.1981C12.5395 16.7476 11.1667 15.2188 11.1667 13.3333C11.1667 11.4478 12.5395 9.91899 14.6667 9.46851V9.33332C14.6667 8.59695 15.2636 7.99999 16 7.99999Z" fill="#F5F5F5"/>
<path fill-rule="evenodd" clip-rule="evenodd" d="M17.5002 17.6609C17.4242 17.6168 17.3333 17.6749 17.3333 17.7629V19.5705C17.3333 19.6585 17.4242 19.7167 17.5002 19.6724C18.0266 19.3664 18.1665 18.92 18.1665 18.6667C18.1665 18.4135 18.0266 17.9669 17.5002 17.6609Z" fill="#F5F5F5"/>
<path fill-rule="evenodd" clip-rule="evenodd" d="M14.6666 12.4529C14.6666 12.354 14.5644 12.2886 14.4796 12.3395C13.9697 12.6451 13.8333 13.0833 13.8333 13.3333C13.8333 13.5833 13.9697 14.0216 14.4796 14.3272C14.5644 14.378 14.6666 14.3127 14.6666 14.2137V12.4529Z" fill="#F5F5F5"/>
</g>
<defs>
<clipPath id="clip0_54_46">
<rect width="32" height="32" fill="white"/>
</clipPath>
</defs>
</svg>
