<svg width="128" height="128" viewBox="0 0 128 128" fill="none" xmlns="http://www.w3.org/2000/svg">
<path d="M101.926 14.389C98.0897 12.7524 93.8203 16.5178 90.9455 19.4944C88.1329 22.4005 85.8906 25.4863 85.7968 25.6153C84.9335 26.8069 85.199 28.4747 86.3906 29.338C87.5821 30.2012 89.2502 29.9355 90.1134 28.7442C90.1174 28.7402 90.1759 28.6622 90.2775 28.5254L97.832 32.9121C97.7225 33.2831 97.6599 33.4981 97.6562 33.5059C97.2227 34.9122 98.0117 36.4042 99.4218 36.8377C99.6835 36.9197 99.9453 36.9587 100.207 36.9587C101.348 36.9587 102.402 36.2204 102.754 35.0722C102.805 34.9082 104.02 30.9355 104.731 26.6659C105.469 22.2207 105.981 16.1155 101.926 14.389Z" fill="#959DA5"/>
<path d="M125.531 71.7304C124.582 70.7423 123.269 69.4648 121.633 67.9317C119.578 66.0137 117.504 64.1584 116.566 63.3263L111.672 49.7679C111.656 49.7326 111.644 49.6976 111.629 49.6624L106.5 37.1702C106.414 36.9632 106.305 36.764 106.168 36.5845C106.055 36.4322 103.32 32.8306 97.9843 29.268C93.0976 26.0101 84.9608 22.1235 73.934 22.1235C67.797 22.1235 61.344 23.3188 54.7523 25.6821C35.5044 32.5763 2.8151 49.5879 1.43455 50.3107C0.772531 50.6544 0.284015 51.2637 0.0907589 51.9865C-0.102498 52.7052 0.0165064 53.4748 0.41702 54.1075L37.7508 112.773C38.184 113.457 38.9028 113.906 39.7056 113.992C39.8033 114.004 39.9028 114.008 40.0006 114.008C40.7019 114.008 41.3796 113.734 41.8814 113.234L58.5649 96.6244C75.075 94.8979 83.676 85.8978 86.5239 82.2535C90.7623 82.988 101.79 84.8786 104.438 85.1871C104.84 85.2341 105.258 85.2573 105.68 85.2573C108.352 85.2573 110.844 84.3353 111.981 83.8433H121.914C122.719 83.8433 123.477 83.4838 123.984 82.8627C128 77.9296 128 76.4295 128 75.7887C128 74.5195 127.238 73.5117 125.531 71.7304Z" fill="#AAB2BC"/>
<path d="M115.797 61.1973L108.985 43.2209C108.696 42.4592 108.074 41.8734 107.301 41.6234C106.528 41.3774 105.684 41.4944 105.008 41.9476L75.9813 61.3733C75.7585 61.5255 75.5633 61.7053 75.3915 61.9123C71.0516 67.2717 70.6413 72.4847 70.2818 77.0823C69.9028 81.8867 69.5748 86.0351 64.9049 90.3085C63.9849 91.1523 63.7719 92.5196 64.3911 93.6014C64.8774 94.4491 65.7702 94.9412 66.7055 94.9412C66.9672 94.9412 67.231 94.9059 67.4907 94.8239C79.6569 91.0818 85.7073 83.4725 87.2232 81.3122L114.7 64.4121C115.789 63.7441 116.25 62.3926 115.797 61.1973Z" fill="#656D78"/>
<path d="M104 60.6738C104 62.1466 102.805 63.3418 101.332 63.3418C99.8593 63.3418 98.668 62.1466 98.668 60.6738C98.668 59.201 99.8595 58.0059 101.332 58.0059C102.805 58.0059 104 59.201 104 60.6738Z" fill="#434A54"/>
<path d="M69.3323 44.5877C69.3323 44.5877 64.7972 25.5176 74.2855 20.6739C77.3326 19.1194 82.4923 36.5647 82.4923 36.5647L69.3323 44.5877Z" fill="#959DA5"/>
<path d="M125.613 80.7574C128 77.4766 128 76.328 128 75.789C128 74.5195 127.238 73.5117 125.531 71.7304C125.527 71.7264 125.523 71.7226 125.519 71.7186C125.519 71.7186 120.508 74.3515 120.785 76.2383C121.062 78.1251 125.613 80.7574 125.613 80.7574Z" fill="#434A54"/>
<path d="M69.3323 47.2558C68.1252 47.2558 67.0294 46.4315 66.7384 45.205C66.6899 44.998 65.5296 40.0566 65.5844 34.4239C65.6391 28.7832 66.9827 21.4082 73.0746 18.2989C74.0394 17.8066 75.1372 17.7793 76.1685 18.2208C78.7621 19.3341 80.7154 23.6543 82.4455 28.1582C83.9258 32.0176 85.0038 35.6542 85.0508 35.8067C85.4688 37.2207 84.6603 38.701 83.25 39.119C81.8362 39.5371 80.3519 38.7323 79.9339 37.3182C79.9261 37.287 78.9533 34.0136 77.6368 30.5213C76.1212 26.4941 75.0587 24.5916 74.4649 23.7205C71.6288 26.0096 70.9531 30.7283 70.9178 34.4746C70.8708 39.4628 71.9179 43.9275 71.9296 43.9705C72.2694 45.404 71.3826 46.8415 69.949 47.1816C69.7425 47.2326 69.5355 47.2558 69.3323 47.2558Z" fill="#CCD1D9"/>
</svg>
